<?xml version="1.0" encoding="UTF-8" standalone="no"?>
<!-- Created with Inkscape (http://www.inkscape.org/) -->

<svg
   width="32"
   height="32"
   viewBox="0 0 32 32"
   version="1.1"
   id="SVGRoot"
   xmlns="http://www.w3.org/2000/svg"
   xmlns:svg="http://www.w3.org/2000/svg">
  <defs
     id="defs132" />
  <path
     id="path1047"
     style="fill:#ff5248;fill-opacity:1;fill-rule:nonzero;stroke:none;stroke-width:11.7997;stroke-linecap:round;stroke-dasharray:none;stroke-opacity:1"
     d="M 15.584068,4.0522453 A 15.5,15.5 0 0 0 2.7754739,11.503417 H 29.22274 A 15.5,15.5 0 0 0 15.584068,4.0522453 Z M 2.3203958,12.304198 a 15.5,15.5 0 0 0 -1.25,3.214844 H 30.953208 A 15.5,15.5 0 0 0 29.68563,12.304198 Z M 0.73055199,17.120605 A 15.5,15.5 0 0 0 0.5196145,19.524902 H 31.496177 a 15.5,15.5 0 0 0 -0.002,-0.394532 15.5,15.5 0 0 0 -0.203125,-2.009766 z m -0.0390625,4.804687 A 15.5,15.5 0 0 0 1.0410989,23.532714 H 30.959068 a 15.5,15.5 0 0 0 0.355468,-1.607422 z m 1.60742191,4.80664 a 15.5,15.5 0 0 0 0.4667969,0.773439 l 26.4687497,-1e-6 a 15.5,15.5 0 0 0 0.464844,-0.773437 z" />
</svg>
